<?xml version="1.0" encoding="UTF-8" standalone="no"?>
<!DOCTYPE svg PUBLIC "-//W3C//DTD SVG 1.1//EN" "http://www.w3.org/Graphics/SVG/1.1/DTD/svg11.dtd">
<svg width="100%" height="100%" viewBox="0 0 1952 1952" version="1.1" xmlns="http://www.w3.org/2000/svg" xmlns:xlink="http://www.w3.org/1999/xlink" xml:space="preserve" xmlns:serif="http://www.serif.com/" style="fill-rule:evenodd;clip-rule:evenodd;stroke-linejoin:round;stroke-miterlimit:2;">
    <g id="Calque-1" serif:id="Calque 1" transform="matrix(4.164531,0,0,4.164531,1,3.994298)">
        <g transform="matrix(1,0,0,1,0,0.001)">
            <rect x="0" y="0" width="467.575" height="467.575" style="fill:rgb(18,23,24);"/>
        </g>
        <g transform="matrix(1,0,0,1,0.72,-0.719)">
            <rect x="0" y="0" width="467.575" height="467.575"/>
        </g>
        <g transform="matrix(1.43514,0,0,1.43514,102.662709,69.456315)">
            <path d="M0,95.21C-2.781,95.907 -4.724,98.396 -4.724,101.264C-4.724,101.697 -4.488,101.965 -4.347,102.087C-4.206,102.208 -3.899,102.406 -3.477,102.337L102.65,86.291C117.051,84.113 130.958,78.53 142.868,70.146L171.252,50.161C183,41.889 187.198,26.397 181.234,13.326L173.179,-4.328C172.388,-6.063 170.777,-7.118 168.872,-7.152C166.91,-7.196 165.318,-6.188 164.465,-4.482L154.299,15.849C139.518,45.411 112.655,66.973 80.597,75.009L0,95.21Z" style="fill:white;fill-rule:nonzero;"/>
        </g>
        <g transform="matrix(1.43514,0,0,1.43514,98.564525,162.107634)">
            <path d="M0,52.259C-1.066,52.415 -1.869,53.343 -1.869,54.42L-1.869,55.657C-1.869,56.266 -1.624,56.832 -1.178,57.25C-0.733,57.667 -0.146,57.879 0.456,57.836L113.04,50.562C118.121,50.234 123.193,49.411 128.117,48.115L187.435,32.505C190.261,31.761 192.234,29.201 192.234,26.279L192.234,1.23C192.234,-1.231 190.928,-3.371 188.739,-4.496C186.551,-5.62 184.048,-5.433 182.047,-4.002L157.646,13.483C139.502,26.485 118.237,35.056 96.149,38.269L0,52.259Z" style="fill:white;fill-rule:nonzero;"/>
        </g>
        <g transform="matrix(1.43514,0,0,1.43514,95.882679,232.693252)">
            <path d="M0,26.255L194.103,26.255L194.103,8.205C194.103,5.696 192.944,3.403 190.923,1.914C188.902,0.426 186.368,0 183.972,0.743L164.219,6.878C148.415,11.787 132.022,14.69 115.494,15.508L4.696,20.993C2.063,21.124 0,23.291 0,25.927L0,26.255Z" style="fill:white;fill-rule:nonzero;"/>
        </g>
        <g transform="matrix(1.43514,0,0,1.43514,156.922323,344.090651)">
            <path d="M0,10.743C-0.607,9.898 -1.499,8.977 -2.794,7.862C-3.403,7.193 -4.216,6.535 -5.157,5.93C-7.55,3.924 -11.164,1.506 -16.207,-1.459C-20.849,-4.183 -24.23,-6.39 -26.016,-7.802C-27.594,-9.298 -28.817,-10.636 -29.404,-11.389C-30.459,-13.256 -30.618,-14.302 -30.618,-14.758C-30.618,-16.244 -30.333,-17.512 -29.709,-18.698C-29.191,-19.734 -28.361,-20.663 -27.333,-21.428C-25.803,-22.449 -24.282,-23.162 -22.813,-23.548C-21.478,-23.903 -18.117,-24.215 -16.403,-24.215L-15.474,-24.215C-13.316,-24.215 -11.567,-25.963 -11.567,-28.121L-11.567,-31.294C-11.567,-33.451 -13.316,-35.2 -15.474,-35.2L-16.403,-35.2C-20.227,-35.2 -23.749,-34.804 -27.049,-33.976C-30.083,-33.065 -32.815,-31.772 -35.255,-30.07C-37.836,-28.168 -39.728,-25.852 -40.967,-22.993C-42.005,-20.192 -42.532,-17.376 -42.532,-14.626C-42.532,-12.147 -42.25,-10.096 -41.74,-8.6C-41.274,-6.836 -40.365,-4.991 -39.037,-3.113C-38.762,-2.724 -38.581,-2.511 -38.188,-2.246C-38.054,-2.127 -37.895,-1.944 -37.717,-1.736C-37.135,-1.04 -36.679,-0.542 -36.399,-0.262C-36.295,-0.156 -35.48,0.54 -33.806,1.873C-31.678,3.448 -28.143,5.742 -23.001,8.88C-18.186,11.823 -14.654,14.196 -12.818,15.645C-11.649,16.817 -10.653,18.107 -9.782,19.608C-9.12,20.653 -8.798,21.832 -8.798,23.207C-8.798,24.983 -9.083,26.511 -9.608,27.74C-10.364,29.32 -11.278,30.621 -12.172,31.465C-13.465,32.555 -14.936,33.353 -16.573,33.88C-17.797,34.24 -19.231,34.477 -20.844,34.589C-22.523,34.71 -24.173,34.693 -25.746,34.532C-27.534,34.359 -29.389,34.163 -31.307,33.945C-33.157,33.734 -34.794,33.504 -36.223,33.251C-37.37,33.046 -38.529,33.363 -39.414,34.106C-40.3,34.846 -40.811,35.944 -40.811,37.098L-40.811,40.667C-40.811,42.716 -39.228,44.415 -37.187,44.564C-36.003,44.648 -34.165,44.868 -31.673,45.203C-28.948,45.572 -26.796,45.802 -25.233,45.891C-24.653,45.926 -24.034,45.943 -23.378,45.943C-22.117,45.943 -20.715,45.879 -19.189,45.755C-16.72,45.55 -14.386,45.086 -12.179,44.346C-9.306,43.323 -6.566,41.777 -3.847,39.585C-1.439,37.388 0.426,34.876 1.783,31.916C2.93,29.001 3.512,25.806 3.512,22.412C3.512,20.044 3.193,17.939 2.566,16.15C2.167,14.501 1.347,12.757 0,10.743" style="fill:white;fill-rule:nonzero;"/>
        </g>
        <g transform="matrix(1.43514,0,0,1.43514,368.84149,362.12117)">
            <path d="M0,-47.236L-4.233,-47.236C-5.509,-47.236 -6.703,-46.614 -7.433,-45.569L-26.89,-17.74L-45.155,-45.477C-45.879,-46.575 -47.105,-47.236 -48.418,-47.236L-53.178,-47.236C-54.617,-47.236 -55.94,-46.443 -56.621,-45.175C-57.3,-43.907 -57.228,-42.366 -56.431,-41.167L-30.239,-1.744C-29.521,-0.664 -28.312,-0.01 -27.014,0L-26.987,0C-25.699,0 -24.492,-0.637 -23.764,-1.699L3.223,-41.123C4.042,-42.319 4.132,-43.87 3.455,-45.153C2.779,-46.433 1.449,-47.236 0,-47.236" style="fill:white;fill-rule:nonzero;"/>
        </g>
        <g transform="matrix(1.43514,0,0,1.43514,333.719893,409.584824)">
            <path d="M0,-26.288L-3.968,-26.288C-6.126,-26.288 -7.874,-24.539 -7.874,-22.382L-7.874,-3.906C-7.874,-1.749 -6.126,0 -3.968,0L0,0C2.157,0 3.906,-1.749 3.906,-3.906L3.906,-22.382C3.906,-24.539 2.157,-26.288 0,-26.288" style="fill:white;fill-rule:nonzero;"/>
        </g>
        <g transform="matrix(1.43514,0,0,1.43514,236.10457,341.994055)">
            <path d="M0,13.665L-3.863,17.442C-5.177,18.727 -5.214,20.83 -3.945,22.161L17.517,44.67C18.915,46.136 20.852,46.965 22.878,46.965L28.288,46.965C31.231,46.965 32.749,43.448 30.731,41.307L20.883,30.858C24.703,24.186 26.637,16.113 26.637,6.833C26.637,1.109 25.878,-4.364 24.346,-9.521C22.641,-14.536 20.26,-18.943 17.205,-22.684C14.165,-26.115 10.364,-28.884 5.92,-30.913C1.862,-32.786 -2.972,-33.739 -8.45,-33.739C-13.833,-33.739 -18.667,-32.786 -22.859,-30.889C-27.143,-28.851 -30.814,-26.072 -33.779,-22.614C-39.995,-15.244 -43.15,-5.34 -43.15,6.833C-43.15,12.56 -42.39,18.034 -40.861,23.191C-39.158,28.197 -36.778,32.599 -33.72,36.35C-30.677,39.78 -26.874,42.549 -22.432,44.578C-18.374,46.451 -13.541,47.404 -8.063,47.404C-5.513,47.404 -3.036,47.183 -0.705,46.739L1.652,46.291L-1.388,39.342C-2.16,37.578 -3.968,36.434 -5.882,36.642C-10.154,37.108 -14.217,36.355 -17.527,34.712C-20.151,33.571 -22.557,31.622 -24.68,28.914C-26.65,26.413 -28.28,23.134 -29.516,19.19C-30.564,15.717 -31.118,11.447 -31.118,6.833C-31.118,2.379 -30.604,-1.915 -29.658,-5.487C-28.415,-9.459 -26.787,-12.738 -24.848,-15.201C-22.486,-18.079 -20.066,-20.047 -17.539,-21.09C-11.708,-23.864 -4.258,-23.666 1.017,-21.038C3.634,-19.905 6.038,-17.957 8.165,-15.253C10.138,-12.743 11.768,-9.459 13.004,-5.524C14.051,-2.052 14.606,2.218 14.606,6.833C14.606,11.269 14.095,15.551 13.157,19.114C12.862,20.111 12.189,21.557 12.189,21.557L4.784,13.755C3.494,12.395 1.34,12.355 0,13.665" style="fill:white;fill-rule:nonzero;"/>
        </g>
    </g>
</svg>
